<svg xmlns="http://www.w3.org/2000/svg" viewBox="0 0 500 375"><g data-name="Payment Transaction"><circle cx="120.736" cy="105.859" r="7.212" fill="#6ca8f5"/><circle cx="243.616" cy="294.693" r="5.1" fill="#6ca8f5"/><circle cx="323.784" cy="85.073" r="3.399" fill="#6ca8f5"/><path fill="#6ca8f5" d="M183.014 266.926c-3.617 1.442-7.447 3.216-9.714 6.535-2.426 3.55-1.832 8.13.543 11.545a15.263 15.263 0 0 0 10.278 6.213c3.544.528 8.717.064 11.075-3.038a3.872 3.872 0 0 0-.123-4.886 6.108 6.108 0 0 0-5.775-1.86c-4.026.55-9.09 2.22-10.77 6.29-1.675 4.061.082 8.478 2.883 11.545a37.406 37.406 0 0 0 11.239 7.805 51.418 51.418 0 0 0 30.498 4.568c1.268-.2.73-2.127-.531-1.928a49.015 49.015 0 0 1-22.5-1.782 48.43 48.43 0 0 1-10.261-4.654c-3.18-1.918-6.593-4.207-8.563-7.442-1.825-2.998-2.149-7.27.833-9.667a13.695 13.695 0 0 1 4.95-2.188c1.899-.537 4.452-1.276 6.114.22 1.798 1.62.2 3.383-1.49 4.156a12.457 12.457 0 0 1-4.957 1.047 13.858 13.858 0 0 1-9.31-3.347c-2.98-2.641-4.928-7.105-2.849-10.873 1.812-3.282 5.637-5.005 8.962-6.33 1.181-.47.666-2.406-.532-1.929ZM390.99 127.45a48.001 48.001 0 0 1-26.424 2.997 44.681 44.681 0 0 1-18.04-7.472c-1.768-1.242-3.914-2.661-5.167-4.46-.703-1.01-1.203-2.468-.128-3.421a4.728 4.728 0 0 1 2.914-.763c2.315-.135 5.001-.297 7.029 1.046a5.411 5.411 0 0 1 2.203 5.447c-.507 2.3-2.652 3.437-4.733 4.044-9.613 2.805-19.817-1.062-27.62-6.704-7.834-5.665-13.649-14.115-14.32-23.937-.087-1.277-2.088-1.287-2 0 .685 10.025 6.238 18.678 14.074 24.736 8.478 6.556 20.224 11.154 30.895 7.68a8.193 8.193 0 0 0 5.24-4.149 7.172 7.172 0 0 0-.477-6.456 7.748 7.748 0 0 0-5.895-3.632 15.839 15.839 0 0 0-7.343.419 4.049 4.049 0 0 0-2.236 5.446c.909 2.276 3.11 3.842 4.99 5.282a46.474 46.474 0 0 0 13.417 7.12 49.357 49.357 0 0 0 34.153-1.294c1.177-.479.662-2.414-.531-1.929Z"/><path fill="#2b8941" d="m317.682 178.805-165.834 93.782c-7.239 4.093-15.346 1.918-17.956-4.88l-44.89-116.94c-2.217-5.777 1.845-12.48 8.94-14.974L263.904 77.48a10.165 10.165 0 0 1 11.88 4.861l44.883 83.51c2.558 4.759 1.254 10.557-2.985 12.954Z"/><path fill="#252525" d="m103.138 187.591 186.963-78.613-9.167-17.056-186.867 72.039 9.071 23.63z"/><path fill="#fff" d="M289.31 133.163 131.9 205.717c-2.366 1.09-4.958.298-5.775-1.77l-5.15-13.04c-.8-2.027.475-4.49 2.834-5.503l157.421-67.547a3.307 3.307 0 0 1 4.106 1.596l5.146 9.707a2.842 2.842 0 0 1-1.172 4.003Z"/><path fill="#f4b1e6" d="M292.06 166.282c3.147 6.078 1.163 13.517-4.553 16.625-5.829 3.168-13.23.602-16.4-5.74-3.143-6.288-.845-13.742 5.006-16.645 5.74-2.848 12.825-.267 15.946 5.76Z"/><path fill="#ef603f" d="M306.254 158.909c3.128 5.9 1.348 13.074-4.09 16.03-5.542 3.013-12.69.475-15.844-5.675-3.128-6.099-1.054-13.284 4.513-16.047 5.465-2.71 12.317-.162 15.42 5.692Z"/><path fill="#f9d95a" d="m284.25 132.418-17.262 7.867a5.583 5.583 0 0 1-7.173-2.666l-.69-1.366a4.908 4.908 0 0 1 2.32-6.839l17.291-7.505a5.454 5.454 0 0 1 6.812 2.626l.685 1.298a4.673 4.673 0 0 1-1.983 6.585Z"/><path fill="#6ca8f5" d="m244.528 178.12-103.237 51.54c-2.377 1.186-5.002.416-5.846-1.722-.842-2.133.414-4.8 2.789-5.956l103.219-50.248a3.504 3.504 0 0 1 4.693 1.628 3.582 3.582 0 0 1-1.618 4.757ZM249.861 189.19l-103.26 53.805c-2.38 1.24-5.02.484-5.879-1.692-.856-2.17.39-4.91 2.77-6.119l103.247-52.475a3.47 3.47 0 0 1 4.714 1.61 3.7 3.7 0 0 1-1.592 4.872ZM255.274 200.428l-103.269 56.137c-2.383 1.296-5.038.553-5.912-1.66-.872-2.209.365-5.024 2.747-6.288l103.265-54.767a3.438 3.438 0 0 1 4.733 1.59 3.822 3.822 0 0 1-1.564 4.988Z"/><path fill="#ef603f" d="m386.153 299.42-181.918-27.234c-5.283-.79-8.95-6.304-8.234-12.303l12.966-108.54c.673-5.638 5.372-10.007 10.534-9.771l176.84 8.07a11.808 11.808 0 0 1 11.5 12.388l-8.18 126.544a11.585 11.585 0 0 1-13.508 10.846Z"/><path fill="#f9d95a" d="m243.01 181.092-21.8-1.639c-2.909-.219-4.955-2.986-4.582-6.176l1.722-14.77a5.936 5.936 0 0 1 5.899-5.431l21.692 1.18a5.344 5.344 0 0 1 4.824 6.162l-1.632 15.154a5.98 5.98 0 0 1-6.122 5.52Z"/><path fill="#397ec3" d="M372.237 175.57a14.59 14.59 0 0 1-15.637 13.402 14.137 14.137 0 0 1-13.106-15.258 14.61 14.61 0 0 1 15.337-13.31 14.132 14.132 0 0 1 13.406 15.165Z"/><path fill="#6ca8f5" d="M393.644 176.95a14.817 14.817 0 0 1-16.006 13.595 14.55 14.55 0 0 1-13.595-15.505 14.834 14.834 0 0 1 15.693-13.499 14.553 14.553 0 0 1 13.908 15.41Z"/><path fill="#252525" d="M293.813 213.758a3.406 3.406 0 0 1-4.7 1.549 3.727 3.727 0 0 1-1.422-4.922 3.408 3.408 0 0 1 4.685-1.558 3.725 3.725 0 0 1 1.437 4.93ZM319.839 214.195a3.54 3.54 0 0 1-4.863 1.576 3.784 3.784 0 0 1-1.517-5.014 3.542 3.542 0 0 1 4.845-1.586 3.782 3.782 0 0 1 1.535 5.024ZM281.809 235.073a.5.5 0 0 1-.287-.91c14.568-10.16 35.528-6.536 35.739-6.498a.5.5 0 0 1 .403.581.51.51 0 0 1-.581.403c-.205-.037-20.766-3.585-34.988 6.334a.498.498 0 0 1-.286.09Z"/><path fill="#f4b1e6" d="m280.615 270.774-68.815-9.641c-2.951-.414-5.018-3.454-4.629-6.787l.2-1.716c.388-3.324 3.079-5.708 6.023-5.328l68.632 8.857a6.5 6.5 0 0 1 5.354 7.182l-.174 1.83a5.944 5.944 0 0 1-6.591 5.603ZM334.197 278.281l-29.555-4.14a6.745 6.745 0 0 1-5.544-7.362l.17-1.846a6.062 6.062 0 0 1 6.716-5.683l29.464 3.803a7.003 7.003 0 0 1 5.911 7.515l-.153 1.906a6.187 6.187 0 0 1-7.01 5.807Z"/></g></svg>