<svg xmlns="http://www.w3.org/2000/svg" viewBox="0 0 1080 1080"><g data-name="Mobile Payment"><path fill="#f4a4a4" d="M1043.47 1015.27H871.4s-54.55-186.5-77.68-311C782.1 641.71 763.49 569.12 863 446c0 0 129.12 134.16 139.22 168.31 21.19 71.79 41.25 400.96 41.25 400.96Z"/><path fill="#e28181" d="M863 545.42s49.63 258 12.88 259.83-64.08-8.33-66.08-129.91S863 545.42 863 545.42Z"/><path fill="#303030" d="M865.21 120.57v698.25a55.88 55.88 0 0 1-55.88 55.88H462.58a55.88 55.88 0 0 1-55.88-55.88V120.57a55.88 55.88 0 0 1 55.88-55.87h346.75a55.87 55.87 0 0 1 55.88 55.87Z"/><path fill="#9bcffa" d="M841.93 821.45A30 30 0 0 1 812 851.4H459.91a30 30 0 0 1-30-29.95V117.89A30 30 0 0 1 459.9 88h69.31l2.79 9a24 24 0 0 0 22.89 16.91H717A24 24 0 0 0 739.89 97l2.78-9H812a30 30 0 0 1 29.94 30Z"/><circle cx="635.94" cy="342.98" r="152.32" fill="#00bd3b"/><path fill="#fff" d="m612.83 410.59-71.14-71.14 17.86-17.86 53.28 53.29 99.5-99.5 17.86 17.85-117.36 117.36z"/><path fill="#f4a4a4" d="M871.4 1015.3s-122-40.88-98-176.88 155.91-30 146.46 27-48.46 149.88-48.46 149.88Z"/><path fill="#f4a4a4" d="M810.81 859.67c-34.6-42-148.51-140.52-88-185.35 36.45-27 81.5 36.33 165.7 123.49ZM36.53 1015.27H208.6s54.55-186.5 77.68-311c11.62-62.56 30.23-135.15-69.23-258.27 0 0-129.12 134.16-139.22 168.31-21.24 71.79-41.3 400.96-41.3 400.96Z"/><path fill="#e28181" d="M217.05 545.42s-49.63 258-12.88 259.83 64.08-8.33 66.08-129.91-53.2-129.92-53.2-129.92Z"/><rect width="491.75" height="333.37" x="213.56" y="428.6" fill="#7f7cdb" rx="21.44"/><path fill="#f4a4a4" d="M269.19 859.67c34.6-42 148.51-140.52 88-185.35-36.45-27-81.5 36.33-165.7 123.49Z"/><path fill="#f4a4a4" d="M208.6 1015.3s122-40.88 98-176.88-155.91-30-146.46 27 48.46 149.88 48.46 149.88Z"/><path fill="#fdac3c" d="M650.85 730.64h-55.51a21.16 21.16 0 0 1 0-42.31h55.51a21.16 21.16 0 1 1 0 42.31ZM255.09 523.13h93.86v66.07h-93.86z"/><path fill="#fff" d="M246.85 648.4h88.71v7.87h-88.71zM359 648.4h88.71v7.87H359zM471.16 648.4h88.71v7.87h-88.71zM583.31 648.4h88.71v7.87h-88.71zM566.11 473.02h105.9v28.16h-105.9z"/></g></svg>