<svg xmlns="http://www.w3.org/2000/svg" viewBox="0 0 4680 3120"><g data-name="5"><rect width="4680" height="3120" fill="#fff" data-name="5" opacity="0"/><path fill="#ffd7be" d="M3894.45,871.69c-236.64-204.94-594.57-256.59-908.28-209.21-131.4,19.84-261.7,55-396.24,43.92-196.22-16.13-369.07-126.75-547.73-207.84-243.2-110.38-522-169.78-780.52-121.77-293.14,54.47-497.11,215.46-525.8,488.39-13,123.69,66.44,513.62,24.77,630.84-42.27,118.87-334.63,355.64-327,632.61.34,12.93,1.11,26,2.23,39.29a747.47,747.47,0,0,0,157.79,401,757.34,757.34,0,0,0,64.83,72.23q3,2.94,6,5.85c3.93,3.76,7.91,7.47,11.91,11.17l.55.49c.67.63,1.36,1.26,2.07,1.88a756,756,0,0,0,100.35,76.95q18.36,11.77,37.42,22.5H3679.89q16.55-11,31.86-22.5a610.12,610.12,0,0,0,84.73-76.95c.73-.79,1.43-1.58,2.15-2.37q5-5.57,9.81-11.17c145.82-170.4,154.14-377.93,122.44-458.74-58.51-149.09,100.44-271.86,161.93-410.65,54.73-123.5,72.76-272,59.39-406.63C4134,1187.27,4046.31,1003.23,3894.45,871.69Z"/><path fill="#4d7772" d="M4217,2297.43c-7.27-2.52-15.29-1.48-22.71.51-84,22.51-108.49,129.85-193.88,154-26.06,7.38-53,16.47-78.83,28.13-25.36,11.44-49.59,25.35-70.7,42.53q-4.37,3.54-8.55,7.28c-24.7,22.11-44.37,49.25-55.37,82.88-9.34,28.56-26.92,54.54-48.42,78.41-6.4,7.12-13.17,14.06-20.17,20.82h0c-9.43,9.11-19.26,17.89-29.25,26.4h107.6c25.22-12.69,48.77-28,69.66-47.23,2.7-2.46,5.36-5,8-7.61,32.8-32.77,56-74,88-107.64,29.08-30.56,69.36-60,110.77-70.95,37-9.77,63.43-9.88,97.82-33,29-19.52,53.35-44.89,68.65-82.43,10.22-25.07,9.92-55.43-5.42-77.73C4229.81,2305.6,4224.16,2299.91,4217,2297.43Z"/><path fill="#498981" d="M4189.75,2358a3.46,3.46,0,0,0-4.83.9c-18.82,27.43-38.42,48.65-59.92,64.85-27.71,20.88-60.64,34.68-92.47,48s-64.73,27.13-92.89,48.06c-16.36,12.16-30.82,26.5-44.3,41.68h0c-11.21,12.62-21.73,25.81-32.1,38.81-17.66,22.14-35.92,45-56.95,64.28a318.43,318.43,0,0,1-33.6,26.62c-21.28,14.78-44.1,27.44-67,39.42q-7.54,3.95-15.07,7.81h15.12c27-14.08,54.09-29,78.9-47.23a311,311,0,0,0,26.31-21.49c21.43-19.61,39.87-42.73,57.69-65.08,5.48-6.87,11-13.79,16.65-20.65,17.59-21.38,36.34-42.14,58.47-58.6,27.48-20.42,60-34,91.42-47.22,32.24-13.51,65.58-27.48,94-48.88,22.12-16.67,42.23-38.41,61.48-66.48A3.44,3.44,0,0,0,4189.75,2358Z"/><path fill="#63a5a2" d="M3994.08,2007.75c-26-.41-48.18,10.22-67.35,26.36-32.7,27.54-56.66,71.14-76.05,103.44-37.58,62.64-67,131.34-75.12,204.48-5.57,50.06-1.14,100.86-7.36,150.83-5,40.18-16.63,78.44-33.14,114.82,0,0,0,0,0,.05a529.91,529.91,0,0,1-45,79.33q-1.41,2.08-2.85,4.16-9.57,13.79-19.87,27.17h0q-7.78,10.16-16,20h79.92c20.17-13.33,40.33-26.52,61-39.19q6.08-3.71,11.89-8c33.61-25,60.74-64.39,81.2-107.22,3.54-7.41,6.89-14.93,10-22.49h0a530.35,530.35,0,0,0,26.22-81.38c1.9-8.18,3.54-16.14,4.91-23.79,14.05-78.56,21.87-153.53,65-223.28,16.25-26.32,35.71-50.69,50-78.13s23.27-59.21,16.44-89.39S4025,2008.23,3994.08,2007.75Z"/><path fill="#498981" d="M3750.45,2152.08c-10.67-5.81-23.87-4.39-35.45-.68-54.79,17.54-84.14,77.5-95,134a403.17,403.17,0,0,0,6.61,180.82c11.46,42.41,29.86,82.88,38.59,125.94,7.76,38.25-2.48,64.51-14,99.07q-1.28,3.83-2.56,7.8c-3.5,10.83-7.52,24.83-12.29,39.43h29.15a480.81,480.81,0,0,0,32.29-47.23c15.84-26.51,28.76-54.51,37.3-83.49,0,0,0,0,0-.05,7.79-26.47,11.94-53.76,11.32-81.49-.84-37.54-8.56-74.58-11.59-112a450.11,450.11,0,0,1,23.14-182.73c4.74-13.75,10.23-27.58,10.66-42.12S3763.22,2159,3750.45,2152.08Z"/><path fill="#498981" d="M3989.18,2040.75a3.46,3.46,0,0,0-3.24,3.69c3.4,51.58-15.19,100.11-35.78,144.86-10.23,22.22-23.54,43.39-36.41,63.87-6.3,10-12.8,20.37-18.9,30.76-21.66,36.92-36.46,76.55-42.81,114.62-3.38,20.22-3.65,40.9-3.9,60.9-.3,23.14-.6,47.07-5.76,70.19,0,.1,0,.19-.07.29-12.57,56-46.71,111.56-98.76,160.65l-.69.64c-7.8,7.31-16.11,14.19-24.51,20.82h0c-5,4-10.13,7.89-15.14,11.75-6.22,4.77-12.55,9.64-18.81,14.65h11.22c3.37-2.63,6.75-5.24,10.1-7.81l1.73-1.33c13.74-10.56,27.94-21.47,40.88-33.67q2.33-2.2,4.62-4.42c50.55-49,83.77-104.27,96.22-160,.63-2.83,1.19-5.68,1.69-8.52,3.69-21.09,4-42.41,4.23-63.11.26-19.73.52-40.15,3.8-59.85,6.22-37.24,20.73-76.05,42-112.23,6-10.3,12.52-20.61,18.79-30.59,13-20.66,26.42-42,36.83-64.66,21-45.59,39.91-95.1,36.41-148.22A3.47,3.47,0,0,0,3989.18,2040.75Z"/><path fill="#63a5a2" d="M3713.65,2188a3.48,3.48,0,0,0-4.69,1.49c-33.16,63.89-48.08,137.68-42,207.77,2.62,30.35,9.09,60.86,15.36,90.38,10.49,49.4,21.33,100.49,13.71,150.59a221.34,221.34,0,0,1-15.22,53,253.4,253.4,0,0,1-13.52,27.17h0q-5.84,10.18-12.7,20H3663a265.53,265.53,0,0,0,25.36-47.23c.57-1.38,1.13-2.77,1.67-4.16a225.48,225.48,0,0,0,12.89-47.79c7.82-51.35-3.16-103.06-13.77-153.08-6.22-29.31-12.66-59.61-15.25-89.53-5.95-68.8,8.7-141.23,41.27-204A3.5,3.5,0,0,0,3713.65,2188Z"/><path fill="#fe9f24" fill-rule="evenodd" d="M3340.17,2654.3H2859a14.78,14.78,0,0,0-14.73,14.75v51.36a14.77,14.77,0,0,0,14.73,14.74h481.17a14.78,14.78,0,0,0,14.74-14.74v-51.36A14.79,14.79,0,0,0,3340.17,2654.3Z"/><path fill="#f0ca46" fill-rule="evenodd" d="M3341.87,2654.3H2857.31c-7.18,0-13.06,6.64-13.06,14.74v2.25h510.67V2669C3354.92,2660.94,3349.05,2654.3,3341.87,2654.3Z"/><rect width="78.87" height="63.86" x="2996.48" y="2671.29" fill="#d75a24"/><rect width="78.89" height="63.86" x="3133.19" y="2671.29" fill="#d75a24"/><rect width="52.32" height="63.86" x="3248.89" y="2671.29" fill="#d75a24"/><path fill="#fe9f24" fill-rule="evenodd" d="M3301.69,2573.46H2820.5a14.78,14.78,0,0,0-14.73,14.74v51.36a14.78,14.78,0,0,0,14.73,14.74h481.19a14.78,14.78,0,0,0,14.73-14.74V2588.2A14.78,14.78,0,0,0,3301.69,2573.46Z"/><path fill="#f0ca46" fill-rule="evenodd" d="M3303.37,2573.46H2818.82c-7.18,0-13.06,6.63-13.06,14.73v2.24h510.67v-2.24C3316.43,2580.09,3310.55,2573.46,3303.37,2573.46Z"/><rect width="58.03" height="63.88" x="3091.76" y="2590.43" fill="#d75a24"/><rect width="38.5" height="63.88" x="3026.18" y="2590.43" fill="#d75a24"/><rect width="58.03" height="63.88" x="3192.33" y="2590.43" fill="#d75a24"/><path fill="#fe9f24" fill-rule="evenodd" d="M3382.29,2492.6H2901.12a14.79,14.79,0,0,0-14.74,14.75v51.37a14.79,14.79,0,0,0,14.74,14.74h481.17a14.79,14.79,0,0,0,14.75-14.74v-51.37A14.79,14.79,0,0,0,3382.29,2492.6Z"/><path fill="#f0ca46" fill-rule="evenodd" d="M3384,2492.6H2899.43c-7.17,0-13,6.64-13,14.74v2.24H3397v-2.24C3397,2499.24,3391.17,2492.6,3384,2492.6Z"/><rect width="101.19" height="63.87" x="2952.43" y="2509.58" fill="#d75a24"/><rect width="101.18" height="63.87" x="3127.82" y="2509.58" fill="#d75a24"/><rect width="67.12" height="63.87" x="3276.21" y="2509.58" fill="#d75a24"/><path fill="#fe9f24" fill-rule="evenodd" d="M3340.18,2411.75H2859a14.78,14.78,0,0,0-14.73,14.75v51.36A14.77,14.77,0,0,0,2859,2492.6h481.18a14.78,14.78,0,0,0,14.74-14.74V2426.5A14.79,14.79,0,0,0,3340.18,2411.75Z"/><path fill="#f0ca46" fill-rule="evenodd" d="M3341.86,2411.75H2857.31c-7.18,0-13,6.64-13,14.74v2.25h510.65v-2.25C3354.92,2418.39,3349.05,2411.75,3341.86,2411.75Z"/><rect width="58.03" height="63.87" x="3130.25" y="2428.74" fill="#d75a24"/><rect width="38.49" height="63.87" x="3064.68" y="2428.74" fill="#d75a24"/><rect width="58.03" height="63.87" x="3230.84" y="2428.74" fill="#d75a24"/><path fill="#fe9f24" fill-rule="evenodd" d="M3776.23,2654.3H3295.06a14.79,14.79,0,0,0-14.74,14.75v51.36a14.79,14.79,0,0,0,14.74,14.74h481.17a14.79,14.79,0,0,0,14.75-14.74v-51.36A14.8,14.8,0,0,0,3776.23,2654.3Z"/><path fill="#f0ca46" fill-rule="evenodd" d="M3777.92,2654.3H3293.37c-7.18,0-13,6.64-13,14.74v2.25H3791V2669C3791,2660.94,3785.1,2654.3,3777.92,2654.3Z"/><rect width="58.03" height="63.86" x="3446.96" y="2671.29" fill="#d75a24"/><rect width="58.02" height="63.86" x="3346.38" y="2671.29" fill="#d75a24"/><rect width="38.5" height="63.86" x="3532.07" y="2671.29" fill="#d75a24"/><rect width="510.65" height="80.85" x="3241.82" y="2573.46" fill="#fe9f24" rx="14.74"/><path fill="#f0ca46" fill-rule="evenodd" d="M3739.43,2573.46H3254.87c-7.17,0-13,6.63-13,14.73v2.24h510.67v-2.24C3752.49,2580.09,3746.61,2573.46,3739.43,2573.46Z"/><rect width="38.5" height="63.88" x="3462.24" y="2590.43" fill="#ff7300"/><rect width="58.03" height="63.88" x="3527.81" y="2590.43" fill="#ff7300"/><rect width="58.03" height="63.88" x="3628.4" y="2590.43" fill="#ff7300"/><path fill="#fe9f24" fill-rule="evenodd" d="M3818.36,2492.6H3337.17a14.79,14.79,0,0,0-14.74,14.75v51.37a14.79,14.79,0,0,0,14.74,14.74h481.19a14.79,14.79,0,0,0,14.74-14.74v-51.37A14.79,14.79,0,0,0,3818.36,2492.6Z"/><path fill="#f0ca46" fill-rule="evenodd" d="M3820,2492.6H3335.49c-7.18,0-13.06,6.64-13.06,14.74v2.24H3833.1v-2.24C3833.1,2499.24,3827.22,2492.6,3820,2492.6Z"/><rect width="58.03" height="63.87" x="3388.49" y="2509.58" fill="#d75a24"/><rect width="58.03" height="63.87" x="3489.08" y="2509.58" fill="#d75a24"/><rect width="38.49" height="63.87" x="3574.19" y="2509.58" fill="#d75a24"/><path fill="#fe9f24" fill-rule="evenodd" d="M3776.24,2411.75H3295.06a14.79,14.79,0,0,0-14.74,14.75v51.36a14.79,14.79,0,0,0,14.74,14.74h481.18a14.79,14.79,0,0,0,14.74-14.74V2426.5A14.79,14.79,0,0,0,3776.24,2411.75Z"/><path fill="#f0ca46" fill-rule="evenodd" d="M3777.92,2411.75H3293.37c-7.17,0-13,6.64-13,14.74v2.25H3791v-2.25C3791,2418.39,3785.11,2411.75,3777.92,2411.75Z"/><rect width="58.03" height="63.87" x="3566.31" y="2428.74" fill="#ff7300"/><rect width="38.51" height="63.87" x="3500.73" y="2428.74" fill="#ff7300"/><rect width="58.03" height="63.87" x="3666.89" y="2428.74" fill="#ff7300"/><path fill="#fe9f24" fill-rule="evenodd" d="M3706.47,2330.9H3225.3a14.79,14.79,0,0,0-14.74,14.75V2397a14.79,14.79,0,0,0,14.74,14.74h481.17a14.79,14.79,0,0,0,14.75-14.74v-51.37A14.79,14.79,0,0,0,3706.47,2330.9Z"/><path fill="#f0ca46" fill-rule="evenodd" d="M3708.17,2330.9H3223.61c-7.18,0-13.05,6.64-13.05,14.75v2.23h510.66v-2.23C3721.22,2337.54,3715.35,2330.9,3708.17,2330.9Z"/><rect width="58.03" height="63.87" x="3377.2" y="2347.88" fill="#d75a24"/><rect width="58.02" height="63.87" x="3276.62" y="2347.88" fill="#d75a24"/><rect width="38.5" height="63.87" x="3462.31" y="2347.88" fill="#d75a24"/><path fill="#fe9f24" fill-rule="evenodd" d="M3835.59,2250.05H3354.42a14.78,14.78,0,0,0-14.75,14.74v51.37a14.78,14.78,0,0,0,14.75,14.74h481.17a14.79,14.79,0,0,0,14.74-14.74v-51.37A14.79,14.79,0,0,0,3835.59,2250.05Z"/><path fill="#f0ca46" fill-rule="evenodd" d="M3837.28,2250.05H3352.72c-7.18,0-13,6.63-13,14.74V2267h510.66v-2.25C3850.33,2256.68,3844.46,2250.05,3837.28,2250.05Z"/><rect width="38.5" height="63.86" x="3560.08" y="2267.04" fill="#ff7300"/><rect width="58.03" height="63.86" x="3625.66" y="2267.04" fill="#ff7300"/><rect width="58.02" height="63.86" x="3726.25" y="2267.04" fill="#ff7300"/><rect width="510.65" height="80.85" x="3300.07" y="2169.2" fill="#fe9f24" rx="14.74"/><path fill="#f0ca46" fill-rule="evenodd" d="M3797.68,2169.2H3313.12c-7.18,0-13,6.63-13,14.75v2.23h510.65V2184C3810.72,2175.83,3804.86,2169.2,3797.68,2169.2Z"/><rect width="58.03" height="63.87" x="3366.12" y="2186.18" fill="#ff7300"/><rect width="38.5" height="63.87" x="3551.81" y="2186.18" fill="#ff7300"/><rect width="58.02" height="63.87" x="3466.71" y="2186.18" fill="#ff7300"/><path fill="#fec53a" fill-rule="evenodd" d="M3296.22,2278.13c-125.85,0-228.51,102.65-228.51,228.51s102.66,228.51,228.51,228.51,228.51-102.65,228.51-228.51S3422.08,2278.13,3296.22,2278.13Z"/><path fill="#fec53a" fill-rule="evenodd" d="M3296.22,2315.8c-105.11,0-190.83,85.73-190.83,190.84s85.72,190.84,190.83,190.84,190.84-85.73,190.84-190.84S3401.34,2315.8,3296.22,2315.8Z"/><path fill="#fff" fill-rule="evenodd" d="M3307,2475.18v-62.47c4.39.33,9.38,1.29,12.67,3.91,3.9,3.09,5.89,9.23,7,13.88,1.28,5.42,3.81,15,7.87,19.08,3.34,3.34,7.82,4.49,12.43,4.49,5.35,0,10.36-1.46,14.28-5.24s5.46-8.56,5.46-13.87c0-12.6-7.31-21.68-17.65-28.17-12.43-7.81-27.53-11-42.07-11.87v-19.36a2.46,2.46,0,0,0-2.45-2.46h-14.78a2.46,2.46,0,0,0-2.45,2.46v19.68c-16,1.13-30.86,6.2-42.62,17.52s-17.11,25.22-17.11,41.38a53.88,53.88,0,0,0,14.47,37.32c11.51,12.67,29.67,22.51,45.26,29.63v73H3287c-4.88,0-9.78-.93-13.89-3.68a16.54,16.54,0,0,1-7-10.17c-.32-1.26-.63-2.52-.95-3.77-2.87-11.5-8.88-25.75-22.81-25.75-5.51,0-10.53,1.65-14.47,5.59a19.72,19.72,0,0,0-5.59,14.46c0,13.36,8.3,22.79,19.26,29.45,13.61,8.29,30,11.46,45.81,12.2v25.35a2.47,2.47,0,0,0,2.45,2.47h14.78a2.47,2.47,0,0,0,2.45-2.47v-26.17c16.95-2.29,33.2-8.17,45.62-20.36,12.06-11.85,17.56-26.57,17.56-43.41a59.45,59.45,0,0,0-15.55-40.92C3342.41,2493.23,3323.64,2482.81,3307,2475.18Zm-19.68-9.5c-6.12-2.94-12.73-6.78-17.12-11.5a21,21,0,0,1-5.94-14.82,24.49,24.49,0,0,1,7.15-17.92,27.4,27.4,0,0,1,15.91-7.94Zm37.07,117.56c-4.65,5.22-10.71,8.09-17.39,9.43V2530.5c6.65,3.08,13.34,7.21,18,12.74a28.64,28.64,0,0,1,6.66,19C3331.64,2570,3329.68,2577.34,3324.4,2583.24Z"/><path fill="#fe7824" fill-rule="evenodd" d="M3296.22,2315.81c-105.39,0-190.83,85.44-190.83,190.83s85.44,190.84,190.83,190.84,190.84-85.44,190.84-190.84S3401.62,2315.81,3296.22,2315.81Zm0,363a172.2,172.2,0,1,1,172.2-172.21A172.21,172.21,0,0,1,3296.22,2678.85Z"/><path fill="#fec53a" fill-rule="evenodd" d="M3701.11,1712.18c-125.85,0-228.5,102.65-228.5,228.5s102.65,228.52,228.5,228.52,228.51-102.65,228.51-228.52S3827,1712.18,3701.11,1712.18Z"/><path fill="#fec53a" fill-rule="evenodd" d="M3701.11,1749.85c-105.11,0-190.83,85.73-190.83,190.83s85.72,190.85,190.83,190.85S3892,2045.8,3892,1940.68,3806.23,1749.85,3701.11,1749.85Z"/><path fill="#fff" fill-rule="evenodd" d="M3711.91,1909.24v-62.48c4.38.32,9.37,1.29,12.67,3.91,3.89,3.09,5.89,9.23,7,13.88,1.29,5.42,3.83,15,7.89,19.09,3.33,3.33,7.81,4.48,12.42,4.48,5.36,0,10.36-1.46,14.28-5.24s5.46-8.56,5.46-13.87c0-12.6-7.31-21.68-17.65-28.18-12.43-7.81-27.52-10.95-42.06-11.87V1809.6a2.46,2.46,0,0,0-2.46-2.45h-14.77a2.46,2.46,0,0,0-2.47,2.45v19.69c-16,1.12-30.85,6.21-42.61,17.51s-17.1,25.23-17.1,41.38a53.88,53.88,0,0,0,14.46,37.33c11.51,12.67,29.66,22.5,45.25,29.63v73h-.36c-4.87,0-9.77-.94-13.88-3.68a16.61,16.61,0,0,1-7-10.19l-.94-3.76c-2.87-11.5-8.88-25.75-22.81-25.75-5.52,0-10.54,1.65-14.47,5.58s-5.58,9-5.58,14.48c0,13.35,8.29,22.78,19.24,29.44,13.61,8.29,30,11.46,45.8,12.21v25.34a2.47,2.47,0,0,0,2.47,2.46h14.77a2.46,2.46,0,0,0,2.46-2.46v-26.17c17-2.29,33.19-8.17,45.62-20.36,12.06-11.85,17.55-26.57,17.55-43.41a59.4,59.4,0,0,0-15.55-40.92C3747.3,1927.27,3728.53,1916.86,3711.91,1909.24Zm-19.7-9.51c-6.11-2.94-12.72-6.78-17.11-11.5a20.93,20.93,0,0,1-5.94-14.82,24.56,24.56,0,0,1,7.16-17.93,27.32,27.32,0,0,1,15.89-7.92Zm37.09,117.56c-4.66,5.22-10.72,8.08-17.39,9.42v-62.16c6.64,3.08,13.34,7.21,18,12.74a28.59,28.59,0,0,1,6.66,19C3736.54,2004.09,3734.57,2011.39,3729.3,2017.29Z"/><path fill="#fe7824" fill-rule="evenodd" d="M3701.11,1749.85c-105.39,0-190.83,85.44-190.83,190.85s85.44,190.83,190.83,190.83S3892,2046.09,3892,1940.7,3806.52,1749.85,3701.11,1749.85Zm0,363a172.2,172.2,0,1,1,172.21-172.19A172.2,172.2,0,0,1,3701.11,2112.89Z"/><g data-name="ilustrasi 3"><path fill="#161310" d="M1625.21,635.11c-10.24-68.15-67.53-123-128.47-123H857.26c-146.78,0-197.13,54.87-186.9,123L973.48,2614.48c10.23,68.15,84.12,123,184,123h679.29c60.93,0,101.75-54.87,91.52-123Z"/><path fill="#545454" d="M1736.25,635.11c-10.2-67.94-67.71-123-128.46-123H872.93c-60.75,0-101.72,55.08-91.52,123l303.12,1979.37c10.2,67.94,67.71,123,128.46,123h734.87c60.74,0,101.72-55.08,91.51-123Z"/><path fill="#ffefd0" d="M1697.84,685.84c-8.64-57.54-60.14-104.18-115-104.18h-664c-54.89,0-92.38,46.64-83.74,104.18l256.68,1709.39c8.64,57.53,60.14,104.18,115,104.18h664c54.89,0,92.38-46.65,83.74-104.18Z"/><path fill="#545454" d="M1127.87,568.12l17.09,34.7c3.57,7.26,6.78,13.68,12.65,13.68h249.61c5.87,0,7.15-6.42,8.55-13.68l6.66-34.7C1423.82,560.91,1124.32,560.91,1127.87,568.12Z"/><polygon fill="#fff" points="1708.58 757.41 937.65 1368.96 995.66 1755.3 1771.91 1179.21 1708.58 757.41"/><path fill="#fff" d="M1027,1963.84l64.78,431.39c2.77,18.47,10.25,35.53,20.49,50.54l753.5-641.68-60.56-403.39Z"/><path fill="#545454" d="M803.77,1082.27a15.54,15.54,0,1,0-30.73,4.66l49,323a15.54,15.54,0,0,0,17.7,13h0a15.54,15.54,0,0,0,13-17.69Z"/><path fill="#545454" d="M874.19,1546a15.54,15.54,0,1,0-30.73,4.66l24.39,162.61a15.54,15.54,0,1,0,30.73-4.66Z"/><path fill="#161310" d="M1661.71,2562.31l-172.15,2.11c-22.41.62-40.33,25.95-40,56.57.3,28.16,15.9,51,35.83,54a30,30,0,0,0,5.38.32l173-3.68c21.79-.64,39-25.63,38.41-55.8S1683.5,2561.71,1661.71,2562.31Z"/><path fill="#6b6b6b" d="M1649.18,2566.28l-172,.51c-22.39.38-40.09,23.13-39.52,50.82.53,25.46,16.3,46.21,36.25,49.09a31.89,31.89,0,0,0,5.37.34l172.84-1.92c21.77-.4,38.75-22.85,37.93-50.13S1671,2565.92,1649.18,2566.28Z"/><path fill="#161310" d="M1202.24,570.31a12.87,12.87,0,0,0-13.56,12.85A14.08,14.08,0,0,0,1202,597.33a12.87,12.87,0,0,0,13.5-12.9A14.09,14.09,0,0,0,1202.24,570.31Z"/><path fill="#161310" d="M1358.49,572.14,1241.72,572c-4.58.13-8,4.56-7.54,9.89.38,4.9,3.84,8.85,8,9.35a6.7,6.7,0,0,0,1.1.05l116.92-.17c4.46-.13,7.69-4.5,7.23-9.75S1363,572,1358.49,572.14Z"/></g><path fill="#161310" d="M1581.73,1878.43l-35.65-238.23-15.44-103.11L1466,1105l-1.72-11.48c-3.61-24.07-25.15-43.58-48.11-43.58H1258.22c-23,0-38.63,19.51-35,43.58l1.72,11.48,64.68,432.07L1305,1640.2l35.66,238.23,2.46,16.51c3.61,24.07,25.16,43.57,48.11,43.57h157.92c23,0,38.64-19.5,35-43.57Z"/><path fill="#ffefd0" d="M1284.12,1541.23l-8.35-55.67s-37.71,45.46-72.52,115.68-66.62,164.83-55.22,263.66q.6,5.24,1.37,10.34c28.43,189.24,220.55,238.18,220.55,238.18l-53.83-358.82Z"/><g data-name="path565015"><path fill="#fff" d="M1149.4,1875.24c28.43,189.24,220.55,238.18,220.55,238.18l-53.83-358.82Z"/><path fill="#fff" d="M1275.77,1485.56s-37.71,45.46-72.52,115.68l80.87-60Z"/></g><path fill="#74a2da" d="M1758.59,2223c-1.33-9.13-10.43-16.54-20.31-16.54h-399c-9.89,0-16.81,7.41-15.48,16.54l19.71,134.84c1.34,9.14,10.43,16.54,20.31,16.54h399c9.88,0,16.81-7.4,15.47-16.54Z"/><polygon fill="#005ec9" points="1441.41 2269.63 1454.16 2269.63 1452.26 2256.63 1441.41 2269.63"/><path fill="#005ec9" d="M1499.41,2262.53a37.44,37.44,0,0,0-15.05-11.12,54.24,54.24,0,0,0-21.16-3.89h-40.94l12.43,85.05h28.67l-3-20.9h-12.76l9.59-10.74-12.82-11.37h12.76l-2.92-19.93h-12.75l10.85-13,1.9,13h10.45c4,0,7,.9,9.2,2.68a11.15,11.15,0,0,1,3.92,7.29q.68,4.61-1.79,7.29c-1.64,1.78-4.45,2.67-8.41,2.67h-10.45l1.44,9.84h0l1.79,12.27h12.27q11.91,0,20-4a25.07,25.07,0,0,0,11.8-11.12q3.7-7.16,2.26-17A34.7,34.7,0,0,0,1499.41,2262.53Z"/><polygon fill="#005ec9" points="1457.08 2289.56 1444.32 2289.56 1457.14 2300.93 1458.52 2299.4 1457.08 2289.56"/><polygon fill="#005ec9" points="1458.52 2299.4 1458.98 2302.56 1457.14 2300.93 1447.55 2311.67 1460.31 2311.67 1458.52 2299.4 1458.52 2299.4"/><polygon fill="#005ec9" points="1458.52 2299.4 1457.14 2300.93 1458.98 2302.56 1458.52 2299.4"/><polygon fill="#005ec9" points="1545.26 2261.13 1552.97 2275.67 1556.43 2261.13 1545.26 2261.13"/><polygon fill="#005ec9" points="1534.47 2297.09 1530.2 2317.74 1542.95 2317.74 1547.87 2297.09 1534.47 2297.09"/><polygon fill="#005ec9" points="1547.87 2297.09 1542.95 2317.74 1575.29 2317.74 1564.33 2297.09 1547.87 2297.09"/><polygon fill="#005ec9" points="1535 2247.52 1510.26 2332.57 1539.42 2332.57 1542.95 2317.74 1530.2 2317.74 1534.47 2297.09 1547.87 2297.09 1552.97 2275.67 1545.26 2261.13 1556.43 2261.13 1552.97 2275.67 1564.33 2297.09 1573.59 2297.09 1583.9 2317.74 1575.29 2317.74 1583.15 2332.57 1612.8 2332.57 1563.19 2247.52 1535 2247.52"/><polygon fill="#005ec9" points="1573.59 2297.09 1564.33 2297.09 1575.29 2317.74 1583.9 2317.74 1573.59 2297.09"/><polygon fill="#005ec9" points="1652.16 2291.87 1641.22 2276.98 1634.55 2291.87 1652.16 2291.87"/><polygon fill="#005ec9" points="1628.36 2295.27 1629.26 2301.38 1637.43 2312.4 1628.36 2295.27"/><polygon fill="#005ec9" points="1653.22 2312.4 1657.98 2301.72 1657.03 2295.27 1653.22 2312.4"/><polygon fill="#005ec9" points="1654.43 2247.52 1641.22 2276.98 1652.16 2291.87 1634.55 2291.87 1641.22 2276.98 1619.56 2247.52 1589.31 2247.52 1629.26 2301.38 1628.36 2295.27 1637.43 2312.4 1629.26 2301.38 1633.82 2332.57 1662.49 2332.57 1657.98 2301.72 1653.22 2312.4 1657.03 2295.27 1657.98 2301.72 1682.13 2247.52 1654.43 2247.52"/><polygon fill="#fff" points="1451.01 2302.56 1451.01 2302.56 1449.11 2289.56 1436.35 2289.56 1449.17 2300.93 1450.55 2299.4 1451.01 2302.56"/><polygon fill="#fff" points="1433.44 2269.63 1446.19 2269.63 1444.29 2256.63 1433.44 2269.63"/><polygon fill="#fff" points="1450.55 2299.4 1449.17 2300.93 1451.01 2302.56 1450.55 2299.4"/><path fill="#fff" d="M1491.44,2262.53a37.44,37.44,0,0,0-15-11.12,54.24,54.24,0,0,0-21.16-3.89h-40.94l12.43,85.05h28.67l-3.05-20.9h-12.76l9.59-10.74-12.82-11.37h12.76l-2.92-19.93h-12.75l10.85-13,1.9,13h10.45c4,0,7,.9,9.2,2.68a11.15,11.15,0,0,1,3.92,7.29q.67,4.61-1.79,7.29t-8.42,2.67h-10.44l1.9,13h0l1.33,9.11h12.27q11.91,0,20-4a25.07,25.07,0,0,0,11.8-11.12q3.69-7.16,2.26-17A34.7,34.7,0,0,0,1491.44,2262.53Z"/><polygon fill="#fff" points="1449.17 2300.93 1439.58 2311.67 1452.34 2311.67 1451.01 2302.56 1449.17 2300.93"/><polygon fill="#fff" points="1537.28 2261.13 1545 2275.67 1548.46 2261.13 1537.28 2261.13"/><polygon fill="#fff" points="1526.5 2297.09 1522.23 2317.74 1534.98 2317.74 1539.89 2297.09 1526.5 2297.09"/><polygon fill="#fff" points="1565.62 2297.09 1556.36 2297.09 1567.32 2317.74 1575.93 2317.74 1565.62 2297.09"/><polygon fill="#fff" points="1539.89 2297.09 1534.98 2317.74 1567.32 2317.74 1556.36 2297.09 1539.89 2297.09"/><polygon fill="#fff" points="1527.03 2247.52 1502.29 2332.57 1531.45 2332.57 1534.98 2317.74 1522.23 2317.74 1526.5 2297.09 1539.89 2297.09 1545 2275.67 1537.28 2261.13 1548.46 2261.13 1545 2275.67 1556.36 2297.09 1565.62 2297.09 1575.93 2317.74 1567.32 2317.74 1575.18 2332.57 1604.83 2332.57 1555.22 2247.52 1527.03 2247.52"/><polygon fill="#fff" points="1644.19 2291.87 1633.25 2276.98 1626.58 2291.87 1644.19 2291.87"/><polygon fill="#fff" points="1620.39 2295.27 1621.29 2301.38 1629.46 2312.4 1620.39 2295.27"/><polygon fill="#fff" points="1645.25 2312.4 1650.01 2301.72 1649.06 2295.27 1645.25 2312.4"/><polygon fill="#fff" points="1646.46 2247.52 1633.25 2276.98 1644.19 2291.87 1626.58 2291.87 1633.25 2276.98 1611.59 2247.52 1581.34 2247.52 1621.29 2301.38 1620.39 2295.27 1629.46 2312.4 1621.29 2301.38 1625.84 2332.57 1654.52 2332.57 1650.01 2301.72 1645.25 2312.4 1649.06 2295.27 1650.01 2301.72 1674.16 2247.52 1646.46 2247.52"/><path fill="#f19a6d" d="M3534.45,2390l-86.27,118.71s24.79,8.39,92.05,41.37c-5,36.71-4.6,65.33-25.5,67.09-90.46,7.6-83.14,120.38-83.14,120.38h194.08l102.87-215.32L3615.21,2445Z"/><path fill="#f19a6d" d="M2666.91,2506.76,2522,2529.71s11.6,23.45,35.83,94.32h0c-179.19-23.71-204.5,113.46-204.5,113.46h357.35l-22.13-116.72Z"/><path fill="#5360a6" d="M3182.43,2022.86c-25.58-21.66-45.67-83-60.3-146.38-19.77-85.53-29.59-174.67-29.59-174.67l-210.92,31.6-171.29,25.66s17.71,32.56,44.52,79.89c29.79,52.6,70.8,123.47,111.22,188.23,49.78,79.77,98.67,150.29,124.5,166,65.71,39.86,444.23,356,444.23,356s183.83-156.34,143.36-216.52C3449.21,2235.77,3320.29,2149.37,3182.43,2022.86Z"/><path fill="#253c73" d="M2881.62,1733.41c-54.45,25.7-108.78,53.47-141.38,66.79,4.26,11.46,9.16,24.48,14.61,38.76,29.79,52.6,70.8,123.47,111.22,188.23,82.2-34.47,201.26-111.62,256.06-150.71-19.77-85.53-29.59-174.67-29.59-174.67Z"/><path fill="#5360a6" d="M3120.83,1521.3c-43.68-84.48-104.6-134.38-104.6-134.38l-398.34,194.13,37.19,120.27S2341,1923.59,2349.21,2005.08s140.69,561.1,140.69,561.1,214.57,14,250.34-17c-51.28-262.95-105.46-475.32-105.46-475.32s113.87-106.76,252.51-166.25,285.58-60.77,276.53-232.93C3160.74,1616,3143,1564.19,3120.83,1521.3Z"/><path fill="#253c73" d="M3016.23,1386.92l-398.34,194.13,37.19,120.27s318.56-54.83,465.75-180C3077.15,1436.82,3016.23,1386.92,3016.23,1386.92Z"/><path fill="#f19a6d" d="M2299.84,1258.08l-270.11-130.87,76.87,173.89s250.28,153.69,287.57,129.32c30.68-20.05,121.68-277.13,121.68-277.13l-160.24-32.63Z"/><path fill="#e84b4b" d="M2800.65,833.44c-32.29-13.74-222.54-42-222.54-42l-155.25,84.23-59.2,68.12v0c-1.33,2.87-2.41,7.26-3.29,12.69l-70.27,271.55,106.36,33.73,95.89,30.41,18.38-112.83h0l54.65,265.19,39.45,191.39s21.72,1.84,53.55,3c52.79,2,135.5-17.69,190.91-30.64,127.12-29.69,272.47-102.19,272.47-102.19s-93.55-283.31-150.87-409.09C2919.49,984.31,2854.34,856.28,2800.65,833.44Z"/><path d="M2741.86,1432l2.36-4.48c-.35.17-.69.37-1,.54Z" opacity=".3"/><path fill="#f19a6d" d="M2532.86,682.23l-114.3,61.63,52.59,153.51s25.29,6.85,71.6-6.66c29.24-8.54,43.71-39.94,49.1-55.06a21.32,21.32,0,0,0-.48-15.48Z"/><path fill="#ef7c59" d="M2471.15,897.37s42.14-29,49.15-37.32c11.92-14.24,26.59-53.09,26.59-53.09l-95.56,37.88Z"/><path fill="#b91f1f" d="M2599.46,990.71s-83.19,205.22-56.08,347.07l61.45,298.15s213.36-119.59,240.3-159.74c123.46-184-.22-310.64-.22-310.64Z" opacity=".53"/><path fill="#f19a6d" d="M2750.09,894c-39.83-1-135.23-9.94-130.42,81.48l-18.58,377.85-295.31,204.14-70,53,26.57,121.72,90.36-61.7,400.15-200.35c15.8-21.85,36.16-47.26,37.59-74.18,4.73-88.56,42-393.23,36.85-422.88C2820.61,934.93,2789.93,895,2750.09,894Z"/><path fill="#ef7c59" d="M2235.74,1610.46l26.57,121.72,47.24-32.26c-8.31-44.59-27.22-100-34.15-119.5Z"/><path fill="#e84b4b" d="M2727.09,862.87c-81.92-5.37-128.49,85.42-127.65,123.18s-17.05,268.41-17.05,268.41l245.37,24.13s45.15-254.86,23.86-315.18S2809,868.24,2727.09,862.87Z"/><path fill="#863b90" d="M2688.52,2620.78c-40.62-2.15-130.72,3.26-130.72,3.26-134.58-17.8-182.36,55.13-197.8,92.56a116.84,116.84,0,0,0-6.7,20.9h357.35l-12.13-64Z"/><path fill="#5d2f66" d="M2635.58,2716.6H2360a116.84,116.84,0,0,0-6.7,20.9h357.35l-12.13-64C2677.38,2672.47,2638.25,2676.47,2635.58,2716.6Z"/><path fill="#fff" d="M2476.31,2623.07a3.8,3.8,0,0,0-5.22-5.53c-.74.69-18,17.43,1.41,50.31a3.81,3.81,0,0,0,3.28,1.87,3.75,3.75,0,0,0,1.93-.53,3.8,3.8,0,0,0,1.34-5.21C2462.92,2636.68,2475.7,2623.67,2476.31,2623.07Z"/><path fill="#fff" d="M2443.59,2629.68a3.8,3.8,0,0,0-5.22-5.53c-.74.7-18,17.43,1.41,50.31a3.8,3.8,0,0,0,6.55-3.87C2430.2,2643.29,2443,2630.28,2443.59,2629.68Z"/><path fill="#fff" d="M2416.43,2643.26a3.8,3.8,0,0,0-5.21-5.53c-.75.69-18,17.43,1.41,50.31a3.8,3.8,0,0,0,6.55-3.87C2403.05,2656.87,2415.83,2643.85,2416.43,2643.26Z"/><path fill="#863b90" d="M3615.21,2445l-75,105.06c-5,36.71-4.6,65.33-25.5,67.09-61.82,5.2-78,59.52-82,93.39a162.07,162.07,0,0,0-1.14,27h194.08l102.87-215.32L3703.38,2505Z"/><path fill="#5d2f66" d="M3603.7,2704.28c-3.08,1-114.49,2-171,6.23a162.07,162.07,0,0,0-1.14,27h194.08l102.87-215.32L3703.38,2505C3683.18,2546.14,3607.22,2703.12,3603.7,2704.28Z"/><path fill="#fff" d="M3522.45,2609.07a3.8,3.8,0,0,0-5.9-4.8c-.65.78-15.57,19.64,8,49.69a3.8,3.8,0,0,0,3,1.46,3.75,3.75,0,0,0,2.34-.82,3.8,3.8,0,0,0,.64-5.34C3511,2624.33,3521.92,2609.74,3522.45,2609.07Z"/><path fill="#fff" d="M3490.88,2619.93a3.81,3.81,0,0,0-5.9-4.81c-.65.79-15.57,19.65,8,49.7a3.82,3.82,0,0,0,3,1.45,3.74,3.74,0,0,0,2.34-.81,3.8,3.8,0,0,0,.64-5.34C3479.39,2635.17,3490.36,2620.59,3490.88,2619.93Z"/><path fill="#fff" d="M3465.75,2637a3.8,3.8,0,0,0-5.9-4.8c-.65.79-15.57,19.65,8,49.69a3.8,3.8,0,1,0,6-4.69C3454.26,2652.2,3465.22,2637.62,3465.75,2637Z"/><path fill="#b91f1f" d="M2396.45,1261.78l95.89,30.41,18.38-112.83h0s-19.23-74.34-31-132.42C2479.7,1046.94,2453.43,1207.51,2396.45,1261.78Z" opacity=".53"/><path fill="#141f35" d="M2560.68,510.93s-46-41-79.44-42.12-43.59,21.73-43.59,21.73-9.15-13.71-18-11.21-15.12,11.33-15.12,11.33-23.09-14.52-45-8.64-32.42,21.25-32.79,31.34c0,0-39.26-11.1-35.07,32.43,1.9,19.63,16.13,26,16.13,26s3.75,35.5,23.24,38.89c0,0-.58,23.89,9.06,21.92l192.33,102.84C2599,738.69,2622.54,511.41,2560.68,510.93Z"/><path fill="#f19a6d" d="M2457.71,509.3c-71.12,3.2-109.82,33.29-116.19,108.49-.33,3.81-.39,7.61-.52,11.43-.58,18,.47,39.67,7,48.39,0,0-18.24,97,69,158.72,9.95,7,48.1-5.93,58.6-10.43,88.48-38,57.76-137.68,57.76-137.68.77-6.59,34.55-16.18,35.17-23C2574.51,600.23,2544.59,505.4,2457.71,509.3Z"/><path fill="#ef7c59" d="M2347.28,676.49c.24.38.48.78.74,1.12,0,0-10.53,56.24,23,110.34,11.37-16.11,16.19-38.08,11.43-60.59S2364.28,686.6,2347.28,676.49Z"/><path fill="#ef7c59" d="M2558.3,673.29c-10-9.68-22.79-14.48-35.37-11.82-23,4.86-36.55,32.58-30.35,61.92,5,23.61,21.28,41.06,39.43,44.44,13.81-39.18,1.39-79.61,1.39-79.61C2533.9,684,2548.09,678.48,2558.3,673.29Z"/><path fill="#9e4c23" d="M2478.08,625.63c-.61-.22-8.91,1.78-16.68.82-9.15-1.14-18.09-5-20.58-1.18-1.83,2.82-1.16,7.71,1.4,10.57,4.34,4.84,11.46.9,30,2,8.7.51,12.39,1.68,12.93.36C2486.08,635.89,2488.09,629.19,2478.08,625.63Z"/><path fill="#9e4c23" d="M2368.8,641.52c-5.65,2.21-9.65,1.05-14.83,3.39-7.82,3.53-3.67,9.15-2.62,11,.61,1.06,3.15-.73,9.51-3,13.53-4.75,19.43-2.72,21.86-7.9,1.44-3,1.15-7.52-.65-9.63C2379.73,632.64,2374.8,639.18,2368.8,641.52Z"/><path fill="#38261f" d="M2463.17,662.44c-3.06-.15-5.72,3.62-6,8.42s2.07,8.81,5.13,8.95,5.72-3.62,6-8.42S2466.23,662.58,2463.17,662.44Z"/><path fill="#38261f" d="M2377.06,669.5c-2.79-.13-5.23,3.64-5.46,8.43s1.85,8.77,4.64,8.9,5.23-3.64,5.46-8.43S2379.85,669.63,2377.06,669.5Z"/><path fill="#141f35" d="M2477.72,498.58C2408.51,475.42,2349,512.43,2313.19,532s28.33,85.77,28.33,85.77c.38-18.2,8.7-33.28,8.7-33.28,35.53,21.42,151.25-9.21,151.25-9.21l26.21,106.37,11.39,27.51-1.33,7.22c8.72,13.06,22.92,12.72,27.59-2.28,14.63-47,35.5-124.37,20-139.65C2573.21,562.53,2546.93,521.74,2477.72,498.58Z"/><path fill="#f19a6d" d="M2557.05,645.27c-19.69-2-37.45,14.08-39.65,35.88s12,41.09,31.67,43.08,37.45-14.07,39.65-35.87S2576.75,647.26,2557.05,645.27Z"/><path fill="#38261f" d="M2550.34,668.82c-5.82,3.34-9.72,9.88-11.57,19.43l-.5,2.58,2.62-.15c3.76-.2,14.18.37,17.27,5.36l3.48-2.16c-3.79-6.12-13.55-7.16-18.3-7.3,1.73-7,4.75-11.73,9-14.18,5.73-3.31,11.95-1.23,12-1.21l1.35-3.87A19.81,19.81,0,0,0,2550.34,668.82Z"/><path fill="#141f35" d="M2491,551.76s-4.46,122.41,34.42,121.23l-20.44-102.66Z"/><path fill="#38261f" d="M2415.05,687.82l-1.57-3.78c-4,1.67-24.28,10.42-26.06,18.13a5,5,0,0,0,1.2,4.63c6.45,7.29,19.2,11.69,19.73,11.87l1.33-3.87c-.13,0-12.27-4.24-18-10.71a1,1,0,0,1-.28-1C2392.37,698.92,2405.81,691.66,2415.05,687.82Z"/><path fill="#141f35" d="M2537.2,468.87c-31.95-20.95-70.3-16.75-123.18-1.63-32.22,9.22-57.56,26.41-88-.67a36.79,36.79,0,0,1-9.66-12.94c-.33-.74-1.34-1.27-2-.68-12.76,10.85-21.78,30.86-22.36,51.83-6.39,2.3-11.55,6.2-14.75,11.7-10.1,17.36,3.11,43.88,29.5,59.25,24.73,14.39,34.46,10.57,141.16-34.43,57.15-24.11,70.26-9.49,77.46.36,8.05,11,27.14-8,33.31-20.13C2558.7,521.53,2557.81,482.39,2537.2,468.87Z"/><path fill="#fff" d="M2418.41,738.45c-7.27,1.81-11.07,11.67-8.5,22s10.54,17.3,17.81,15.5,11.07-11.67,8.5-22S2425.67,736.65,2418.41,738.45Z"/><path fill="#73b5a9" fill-rule="evenodd" d="M2109.42,1105h-884.5l115.77,773.41h768.73a87.32,87.32,0,0,0,87.06-87.06V1192.08A87.32,87.32,0,0,0,2109.42,1105Z"/><polygon fill="#084861" fill-rule="evenodd" points="1305.03 1640.2 2196.49 1640.2 2196.49 1537.09 1289.6 1537.09 1305.03 1640.2"/><path fill="#bdffe5" fill-rule="evenodd" d="M2108.12,1165.58H1927.66a14.57,14.57,0,1,0,0,29.13h180.46a14.57,14.57,0,0,0,0-29.13Z"/><path fill="#bdffe5" fill-rule="evenodd" d="M2108.12,1238.45h-91.73a14.56,14.56,0,1,0,0,29.12h91.73a14.56,14.56,0,1,0,0-29.12Z"/><path fill="#bdffe5" fill-rule="evenodd" d="M1952.52,1238.45H1712.65a14.56,14.56,0,1,0,0,29.12h239.87a14.56,14.56,0,0,0,0-29.12Z"/><path fill="#448299" fill-rule="evenodd" d="M1802.34,1407.69H1514.26a14.57,14.57,0,0,0,0,29.14h288.08a14.57,14.57,0,0,0,0-29.14Z"/><path fill="#bdffe5" fill-rule="evenodd" d="M2108.12,1745.31h-91.73a14.6,14.6,0,0,0-14.56,14.56h0a14.61,14.61,0,0,0,14.56,14.56h91.73a14.61,14.61,0,0,0,14.56-14.56h0A14.6,14.6,0,0,0,2108.12,1745.31Z"/><path fill="#bdffe5" fill-rule="evenodd" d="M1952.52,1745.31H1635.33a14.61,14.61,0,0,0-14.58,14.56h0a14.62,14.62,0,0,0,14.58,14.56h317.19a14.6,14.6,0,0,0,14.55-14.56h0A14.59,14.59,0,0,0,1952.52,1745.31Z"/><path fill="#fec53a" fill-rule="evenodd" d="M2070.37,1320.59H1911.68a36.34,36.34,0,0,0-36.22,36.23v102.64a36.33,36.33,0,0,0,36.22,36.22h158.69a36.32,36.32,0,0,0,36.23-36.22V1356.82A36.33,36.33,0,0,0,2070.37,1320.59Z"/><path fill="#d75a24" fill-rule="evenodd" d="M2044.19,1447.62h-89.48v-127h-7.18v40.91H1903.8a3.59,3.59,0,0,0,0,7.17h43.73v34.54h-19.74a3.59,3.59,0,0,0,0,7.17h19.74v37.24h-72.07v7.17h118.73v40.89h7.15v-40.89h42.85a3.59,3.59,0,1,0,0-7.17Z"/><path fill="#d75a24" fill-rule="evenodd" d="M1887.19,1365.08a3.57,3.57,0,0,0-3.57-3.58h-8.16v7.17h8.16A3.57,3.57,0,0,0,1887.19,1365.08Z"/><path fill="#d75a24" fill-rule="evenodd" d="M1911.18,1406.8a3.59,3.59,0,0,0-3.59-3.59h-32.13v7.17h32.13A3.58,3.58,0,0,0,1911.18,1406.8Z"/><path fill="#d75a24" fill-rule="evenodd" d="M2053.83,1365.08a3.59,3.59,0,0,0,3.59,3.59h49.18v-7.17h-49.18A3.59,3.59,0,0,0,2053.83,1365.08Z"/><path fill="#d75a24" fill-rule="evenodd" d="M2060.8,1451.2a3.59,3.59,0,0,0,3.58,3.59h42.22v-7.17h-42.22A3.58,3.58,0,0,0,2060.8,1451.2Z"/><path fill="#d75a24" fill-rule="evenodd" d="M2027.36,1368.67h9.87a3.59,3.59,0,1,0,0-7.17h-9.87v-40.91h-7.15v86.21a3.57,3.57,0,0,0,3.56,3.58h82.83v-7.17h-79.24Z"/><path fill="#f19a6d" d="M1940.11,1053.81a30.79,30.79,0,0,0-31.27,6s-1.94-19-34.52-12c0,0-30.27-17.22-49,15.18,0,0-25-13-42.41,18.46s2.26,44.47,2.26,44.47l141.68-21h49.33s-5.77-21.09-9.82-27.8C1962,1070,1940.11,1053.81,1940.11,1053.81Z"/><path fill="#f19a6d" d="M1877.19,1130.59c-1.77,6.58-3,14.23,1.11,19.69,4.62,6.2,14.35,6.48,21,2.6s7.85-11,11.59-17.73c11.39-20.56,20.16-45.68,29.89-68.28l-32.94-6.29C1895.9,1083.14,1883.83,1105.93,1877.19,1130.59Z"/><path fill="#f19a6d" d="M1836.59,1134.34c-1.77,6.58-3,14.22,1.11,19.69,4.62,6.2,14.34,6.48,21,2.6s7.85-11,11.6-17.73c11.38-20.57,20.16-45.68,29.88-68.29l-32.94-6.28C1855.3,1086.88,1843.23,1109.68,1836.59,1134.34Z"/><path fill="#f19a6d" d="M1794.27,1141.9c-1.77,6.58-3,14.23,1.11,19.69,4.62,6.2,14.35,6.48,21,2.6s7.85-11,11.59-17.72c11.39-20.57,20.17-45.69,29.89-68.29l-32.94-6.29C1813,1094.45,1800.92,1117.24,1794.27,1141.9Z"/><path fill="#ef7c59" d="M1887.42,1096.68c-8.94,20.21-13.5,37.57-12.57,37.85s7.12-16.36,16-36.35,17-35.78,16-36.31S1896.29,1076.46,1887.42,1096.68Z"/><path fill="#ef7c59" d="M1851.06,1092.27c-10.43,22.8-16.67,42.18-15.74,42.51s8.75-18.31,19.11-41,19.35-40.78,18.41-41.29S1861.44,1069.45,1851.06,1092.27Z"/><path fill="#ef7c59" d="M1808.64,1099.39c-8.69,21.29-15,38.86-14,39.24s8.76-16.55,17.45-37.84,15-38.85,14-39.23S1817.32,1078.11,1808.64,1099.39Z"/><path fill="#ef7c59" d="M1938.53,1074.58a284.93,284.93,0,0,0-14.64,28.15,277.38,277.38,0,0,0-11.43,29.4c-2.45,7.68-3.52,12.54-3,12.68,1,.3,7.74-18.4,17.91-40.75s19.82-39.9,18.86-40.38C1945.74,1063.47,1942.74,1067.59,1938.53,1074.58Z"/><path fill="#f19a6d" d="M2266.8,1706.1s10.24-7,8.87-16.88c-1.72-12.35-14.78-15.86-14.78-15.86s10-8.49,8.59-15.55c-2.78-13.72-19.23-17.37-19.23-17.37a17.47,17.47,0,0,0,4.94-20.24c-5.41-14.23-32.42-31.19-45.42-47l-9.54,5.82-2.57,32.5c-17.12,8.85-58.88-10.18-60.21,13.56-.8,14.38,20.71,22.27,20.71,22.27s-27.54-1.1-24.33,17.71c3.09,18.08,33,19.75,33,19.75s-26.93,3.51-22.25,20.47,35.53,18.41,35.53,18.41-20.49,3.94-11,16.67c20.39,27.31,103.17,6.68,106.86-14.56C2277.76,1715.3,2266.8,1706.1,2266.8,1706.1Z"/><path fill="#f19a6d" d="M2230,1534.87c-11.24-22.83-32.5,7.59-29.81,44.13l7.07,28,25.56-11.87C2221.87,1579.06,2238.35,1551.74,2230,1534.87Z"/><path fill="#ef7c59" d="M2265.34,1707.45c-29,9.76-56,13.41-86.43,14.79-1.06,0-.88,1.64.07,1.78,28.75,4.16,61-2.74,86.55-16.16A.23.23,0,0,0,2265.34,1707.45Z"/><path fill="#ef7c59" d="M2261.34,1673.44c-26.1,8.92-73.74,15-95.85,10.9-1.31-.25-.6,1.14.51,1.44,32.59,8.7,69.08,1.92,95.52-11.76C2261.83,1673.85,2261.65,1673.33,2261.34,1673.44Z"/><path fill="#ef7c59" d="M2249.19,1641.05c-31,8.33-61.64,12-93.2,4.9-.68-.15-.79.86-.25,1.11,13.94,6.4,28,8.45,43.33,7.3,16-1.2,36.29-4.45,50.32-12.65C2249.71,1641.53,2249.59,1640.94,2249.19,1641.05Z"/><rect width="3104.76" height="22.5" x="727.73" y="2737.5" fill="#992e2e"/><circle cx="1319.14" cy="1063.68" r="251.32" fill="#e84b4b" transform="rotate(-45 1319.13 1063.678)"/><polygon fill="#fff" points="1207.86 952.84 1330.54 1138.16 1371.93 1117.44 1297.1 908.17 1207.86 952.84"/><rect width="46.29" height="44.01" x="1352.8" y="1155.16" fill="#fff" transform="rotate(-26.59 1375.918 1177.154)"/><ellipse cx="2020.21" cy="738.76" fill="#74a2da" rx="182.27" ry="120.52"/><path fill="#74a2da" d="M2069.8,829.75s103.75,73.8,104,71c2.82-26.33-24.36-117.77-24.36-117.77Z"/><circle cx="1949.87" cy="731.92" r="14.84" fill="#fff" transform="rotate(-22.5 1949.877 731.925)"/><circle cx="2020.21" cy="731.92" r="14.84" fill="#fff"/><path fill="#fff" d="M2090.54,717.08a14.85,14.85,0,1,0,14.84,14.84A14.84,14.84,0,0,0,2090.54,717.08Z"/><path fill="#992e2e" d="M2991.4,734.56a41.86,41.86,0,0,0-10.56-5c-.64-.2-1.27-.38-1.91-.54a41.25,41.25,0,1,0,8.87,76.57A40.68,40.68,0,0,0,3008,781.47a41.63,41.63,0,0,0,1.76-8.79A41.09,41.09,0,0,0,2991.4,734.56Z"/><path fill="#992e2e" d="M3105.4,552.42c-13.53-17.06-33.32-30.57-56.26-37.74a130.5,130.5,0,0,0-15.63-3.89,102.71,102.71,0,0,0-31.87-1.1h0a88,88,0,0,0-39.33,15.17,30,30,0,0,0,34.12,49.27,40.41,40.41,0,0,1,24.22-7.52,41.79,41.79,0,0,1,11.28,1.93c15.48,4.83,24.2,20.39,19,36.9-7.29,23.31-25.77,19.72-49.34,25.31-1.12.27-2.24.55-3.37.86-18.59,5.13-23.15,17.29-27.87,32.42l-2.83,9a29.82,29.82,0,0,0,18.81,37.1l.76.25a29.84,29.84,0,0,0,31.26-8.66,28.73,28.73,0,0,0,4.65-7.19c2.46-5.46,5.56-10.53,9.32-13.68h0a12.16,12.16,0,0,1,9.26-3.24c17.08-1.73,32.95-5.33,46.15-12,15.69-7.87,27.61-20,33.33-38.32a75.83,75.83,0,0,0,.6-43.7A89.18,89.18,0,0,0,3105.4,552.42Z"/><path fill="#732e2e" d="M2983.64,555.47c-14.44,4.83-26.34-3.21-34-9.35a30,30,0,0,0,46.75,28,40.41,40.41,0,0,1,24.22-7.52,41.79,41.79,0,0,1,11.28,1.93c15.48,4.83,24.2,20.39,19,36.9-7.29,23.31-25.77,19.72-49.34,25.31-1.12.27-2.24.55-3.37.86-18.59,5.13-23.15,17.29-27.87,32.42l-2.83,9a29.82,29.82,0,0,0,18.81,37.1l.76.25a29.84,29.84,0,0,0,31.26-8.66c-12.24,4.66-26.11-1.83-33.42-11.69-4.21-5.68,1.28-43.06,20.67-43.84,39.46-1.59,76.51-20.22,65.65-60.46S3022.39,542.53,2983.64,555.47Z"/><path fill="#732e2e" d="M2993.66,781.71c-18.26,20.64-57.94,9-47.56-25.66,7.34-24.44,31.65-23.91,45.3-21.49a41.86,41.86,0,0,0-10.56-5c-.64-.2-1.27-.38-1.91-.54a41.25,41.25,0,1,0,8.87,76.57A40.68,40.68,0,0,0,3008,781.47a41.63,41.63,0,0,0,1.76-8.79C3006,771.69,3000.53,774,2993.66,781.71Z"/><path fill="#992e2e" d="M3067.09,802.74c-.34-.38-.67-.75-1-1.11a31.42,31.42,0,1,0-2,45.58,32.47,32.47,0,0,0,4.63-5,31.27,31.27,0,0,0,3.26-32A31.78,31.78,0,0,0,3067.09,802.74Z"/><path fill="#992e2e" d="M3196.9,690.56a99.27,99.27,0,0,0-8.59-8.75,78.38,78.38,0,0,0-20.23-13.39h0a67,67,0,0,0-31.55-5.81,22.8,22.8,0,0,0,2.52,45.53,30.75,30.75,0,0,1,18.7,4.76,31.82,31.82,0,0,1,6.55,5.74c8.12,9.3,7.58,22.86-2.34,31.51-14,12.22-24.56,2.53-42.06-3.22-.84-.27-1.68-.53-2.53-.78-14.1-4.07-21.89,2-31,9.94L3081,760.8a22.69,22.69,0,0,0-2.57,31.54c.13.16.26.32.4.47a22.69,22.69,0,0,0,23.72,6.82,21.83,21.83,0,0,0,5.87-2.81c3.77-2.56,7.79-4.62,11.49-5.17h0a9.26,9.26,0,0,1,7.3,1.58c11.76,5.68,23.49,9.66,34.68,10.61,13.31,1.15,25.87-2,36.87-11.58a57.66,57.66,0,0,0,17.77-28.1,67.64,67.64,0,0,0,1.87-26.74C3216.38,721,3208.93,704.34,3196.9,690.56Z"/><path fill="#732e2e" d="M3138.19,691c-11.28-2.62-15.8-12.56-18.31-19.58a22.79,22.79,0,0,0,19.17,36.76,30.75,30.75,0,0,1,18.7,4.76,31.82,31.82,0,0,1,6.55,5.74c8.12,9.3,7.58,22.86-2.34,31.51-14,12.22-24.56,2.53-42.06-3.22-.84-.27-1.68-.53-2.53-.78-14.1-4.07-21.89,2-31,9.94L3081,760.8a22.69,22.69,0,0,0-2.57,31.54c.13.16.26.32.4.47a22.69,22.69,0,0,0,23.72,6.82c-9.8-1.85-16.21-11.58-17-20.88-.46-5.36,18-27.42,30.86-20.21,26.21,14.67,57.66,17.34,66.63-13.08S3168.47,698,3138.19,691Z"/><path fill="#732e2e" d="M3034,806.09c14.49-12.93,30.05-2.92,37.94,4.09a31.78,31.78,0,0,0-4.87-7.44c-.34-.38-.67-.75-1-1.11a31.42,31.42,0,1,0-2,45.58,32.47,32.47,0,0,0,4.63-5c-2.08-2.16-6.49-2.85-14-.56C3034.61,847.77,3013.51,824.41,3034,806.09Z"/><path fill="#992e2e" d="M2896.72,741.22a31.26,31.26,0,0,0-27.24-17.16,31.69,31.69,0,0,0-8.83,1.05c-.49.13-1,.26-1.44.42a31.42,31.42,0,1,0,39.93,22.07A31.86,31.86,0,0,0,2896.72,741.22Z"/><path fill="#992e2e" d="M2892.55,574.13a67.5,67.5,0,0,0-23.11-13.56c-15.61-5.54-33.83-6.27-51.52-1.63a102.91,102.91,0,0,0-11.66,3.81,78.3,78.3,0,0,0-21,12.16h0A67.09,67.09,0,0,0,2766,600.58a22.8,22.8,0,0,0,41.9,18,30.72,30.72,0,0,1,12.58-14.64,31.8,31.8,0,0,1,8-3.3c11.94-3.14,23.84,3.37,27.18,16.1,4.72,18-8.65,23.12-21.59,36.25-.61.62-1.22,1.26-1.83,1.91-9.91,10.82-7.94,20.5-4.87,32.16l1.81,7a22.68,22.68,0,0,0,27.11,16.33l.6-.14A22.72,22.72,0,0,0,2873.63,692a21.87,21.87,0,0,0,.09-6.52c-.62-4.51-.67-9,.48-12.58h0a9.3,9.3,0,0,1,4.66-5.83c10.32-8,19.1-16.74,24.94-26.34,6.94-11.41,9.73-24.05,6-38.17A57.64,57.64,0,0,0,2892.55,574.13Z"/><path fill="#732e2e" d="M2847.35,698c-5-2-16.56-28.28-4.37-36.62,24.8-17,41.17-43.93,17.91-65.49s-49-8.13-68.73,15.86c-7.37,8.95-18.28,8.57-25.69,7.69a22.8,22.8,0,0,0,41.46-.81,30.72,30.72,0,0,1,12.58-14.64,31.8,31.8,0,0,1,8-3.3c11.94-3.14,23.84,3.37,27.18,16.1,4.72,18-8.65,23.12-21.59,36.25-.61.62-1.22,1.26-1.83,1.91-9.91,10.82-7.94,20.5-4.87,32.16l1.81,7a22.68,22.68,0,0,0,27.11,16.33l.6-.14A22.72,22.72,0,0,0,2873.63,692C2867.62,700,2856.05,701.36,2847.35,698Z"/><path fill="#732e2e" d="M2896.72,741.22c-2.86.91-5.44,4.55-6.74,12.33-3.44,20.68-33.74,29.18-41,2.66-5.14-18.72,10.75-28.2,20.53-32.15a31.69,31.69,0,0,0-8.83,1.05c-.49.13-1,.26-1.44.42a31.42,31.42,0,1,0,39.93,22.07A31.86,31.86,0,0,0,2896.72,741.22Z"/><path fill="#e95900" d="M1107.13,1944.21l-.09-.63-34.72-252.14-10.38-73.85c-2.7-19.19-21-33.56-41.68-34.12-1.4.1-3,.09-4.36.19l-361.1,27.13a29.46,29.46,0,0,0-4.85.73h-.14c-35.86,6.26-53.58,43.11-50.85,62.54l44.9,319.5c2.86,20.33,23.51,35.55,46,33.94l354.15-25.36c20.28-1.45,50.24-16.6,60.36-47.16a23,23,0,0,0,1.29-3.92c.43-1.94.86-3.89,1.28-6,0-.25.09-.39,0-.64C1107.15,1944.33,1107.15,1944.33,1107.13,1944.21Z"/><path fill="#ff9f00" d="M1061.94,1617.59c-2.7-19.19-21-33.56-41.68-34.12-1.4.1-3,.09-4.36.19L661.75,1609a40.49,40.49,0,0,0-11.8,2.5h-.14c-16,5.86-26.07,20.61-23.73,37.27L671,1968.17c2.88,20.45,23.51,35.55,46,33.94l354.15-25.36c15.53-1.11,27.88-9.78,33.26-21.76a23,23,0,0,0,1.29-3.92c.43-1.94.86-3.89,1.28-6,0-.25.09-.39,0-.64s0-.64,0-.89a33.58,33.58,0,0,0-.22-6.62Z"/><path fill="#fff" d="M839.6,1758.69c-.91-6.89,5.34-13.08,27.31-14.49,19.42-1.25,40.76,2.3,64.05,10.94l16.15-50.55c-19.36-8-43-12-66.82-12.5l-4-30.72-44.89,2.88,4.11,31.3c-51.34,10-73.86,38.9-69.6,71.35,9.85,74.93,130.38,46.64,133.7,71.9.91,6.9-6.2,11.41-27.54,12.78-24.51,1.57-53.47-3.81-75.95-13.66l-17.71,50.94c20.5,9.39,52.4,15.17,84.46,14.84l4,30.44,44.89-2.88-4.19-31.87c48.33-10.92,69.62-39.51,65.54-70.52C963.34,1754.8,842.77,1782.81,839.6,1758.69Z"/><path fill="#992e2e" d="M3912.84,869.32l-18.32-5.92,14.12-43.72a18.11,18.11,0,0,0-11.66-22.8l-79.51-25.68,41.74,13.48a11,11,0,0,0-7.11-13.89l-294.81-95.25a11,11,0,0,0-13.89,7.11l-37.78-12.2a18.09,18.09,0,0,0-22.79,11.66l-14.13,43.72-18.32-5.92a18.11,18.11,0,0,0-22.8,11.67l-218,674.93a18.11,18.11,0,0,0,11.66,22.79l462.46,149.41a18.1,18.1,0,0,0,22.8-11.66L3924.5,892.12A18.1,18.1,0,0,0,3912.84,869.32Z"/><path fill="#992e2e" d="M3182.8,1381.42s-8,20.71-3.45,28.61,41.84,19.27,41.84,19.27l-10-28Z"/><path fill="#992e2e" d="M3886.82,836.18l-10.17,35.76s38.82,61.33,47.85,20.18S3886.82,836.18,3886.82,836.18Z"/><path fill="#992e2e" d="M3870.52,764l-10.17,35.76s38.81,61.33,47.85,20.18S3870.52,764,3870.52,764Z"/><path fill="#da5906" d="M3886.82,836.18,3424.35,686.77a18.1,18.1,0,0,0-22.79,11.67l-218,674.93a18.09,18.09,0,0,0,11.66,22.79l462.46,149.41a18.1,18.1,0,0,0,22.8-11.66L3898.48,859A18.12,18.12,0,0,0,3886.82,836.18Z"/><path fill="#f48400" d="M3871,763.74,3479.6,637.31A18.09,18.09,0,0,0,3456.81,649l-224.46,694.75a18.11,18.11,0,0,0,11.66,22.8L3635.37,1493a18.09,18.09,0,0,0,22.79-11.66l224.46-694.75A18.12,18.12,0,0,0,3871,763.74Z"/><path fill="#992e2e" d="M3826.08,737.65,3531.26,642.4a11,11,0,0,0-13.89,7.11l315.81,102A11,11,0,0,0,3826.08,737.65Z"/><path fill="#fff" d="M3595.35,1436.58l-285.9-92.37a3.41,3.41,0,0,0-4.29,2.19l-1.21,3.75a3.39,3.39,0,0,0,2.19,4.28l285.91,92.37a3.41,3.41,0,0,0,4.29-2.19l1.21-3.75A3.4,3.4,0,0,0,3595.35,1436.58Z"/><path fill="#75a3db" d="M3810.8,811.27,3500.58,711.05a15.06,15.06,0,0,0-19,9.69l-58.39,180.74a15,15,0,0,0,9.71,19l310.21,100.22a15.08,15.08,0,0,0,19-9.71l58.39-180.74A15.06,15.06,0,0,0,3810.8,811.27Z"/><path fill="#fff" d="M3428.67,918.3a15.12,15.12,0,0,0,4.26,2.16l85.93,27.76,277.06-141.76L3704.79,777Z" opacity=".4"/><polygon fill="#fff" points="3453.46 807.88 3443.77 837.86 3617.7 748.88 3587.71 739.19 3453.46 807.88" opacity=".4"/><polygon fill="#fff" points="3656.27 992.61 3790.19 924.1 3799.87 894.12 3626.29 982.93 3656.27 992.61" opacity=".4"/><path fill="#992e2e" d="M3491.85,965.44l-68.44-22.11a13.76,13.76,0,0,0-8.46,26.19l68.44,22.11a13.76,13.76,0,0,0,8.46-26.19Z"/><path fill="#992e2e" d="M3614.66,1005.11,3546.23,983a13.77,13.77,0,0,0-8.46,26.2l68.43,22.1a13.76,13.76,0,1,0,8.46-26.19Z"/><path fill="#992e2e" d="M3737.47,1044.79,3669,1022.68a13.76,13.76,0,0,0-8.46,26.19L3729,1071a13.76,13.76,0,1,0,8.46-26.19Z"/><path fill="#fff" d="M3479.51,1020.46l-82.24-26.57c-4.05-1.31-8.51,1.26-10,5.74l-12.78,39.54c-1.44,4.48.67,9.18,4.73,10.49l82.24,26.57c4.05,1.31,8.52-1.27,10-5.75l12.78-39.53C3485.68,1026.47,3483.57,1021.77,3479.51,1020.46Z"/><path fill="#fff" d="M3604.3,1060.77l-82.24-26.57c-4-1.31-8.52,1.27-10,5.75l-12.77,39.53c-1.45,4.49.67,9.18,4.73,10.49l82.23,26.57c4.06,1.31,8.52-1.26,10-5.74l12.77-39.53C3610.47,1066.78,3608.36,1062.08,3604.3,1060.77Z"/><path fill="#fff" d="M3729.09,1101.09l-82.24-26.57c-4-1.31-8.52,1.26-10,5.75l-12.77,39.53c-1.45,4.48.67,9.18,4.72,10.49l82.24,26.57c4.06,1.31,8.52-1.26,10-5.75l12.77-39.53C3735.26,1107.1,3733.15,1102.4,3729.09,1101.09Z"/><path fill="#fff" d="M3451.19,1108.12,3369,1081.55c-4-1.31-8.52,1.26-10,5.74l-12.77,39.53c-1.45,4.49.66,9.18,4.72,10.5l82.24,26.56c4.05,1.31,8.52-1.26,10-5.74l12.78-39.53C3457.36,1114.12,3455.25,1109.43,3451.19,1108.12Z"/><path fill="#fff" d="M3576,1148.43l-82.24-26.57c-4-1.31-8.52,1.26-10,5.75L3471,1167.14c-1.45,4.48.67,9.18,4.73,10.49L3558,1204.2c4.06,1.31,8.52-1.26,10-5.75l12.77-39.53C3582.15,1154.44,3580,1149.74,3576,1148.43Z"/><path fill="#fff" d="M3700.77,1188.75l-82.24-26.57c-4.05-1.31-8.52,1.26-10,5.74l-12.77,39.54c-1.45,4.48.67,9.18,4.72,10.49l82.24,26.57c4.06,1.31,8.52-1.26,10-5.75l12.77-39.53C3706.94,1194.76,3704.83,1190.06,3700.77,1188.75Z"/><path fill="#fff" d="M3422.87,1195.77l-82.24-26.56c-4.05-1.32-8.52,1.26-10,5.74l-12.78,39.53c-1.44,4.49.67,9.18,4.73,10.49l82.24,26.57c4,1.31,8.51-1.26,10-5.74l12.78-39.53C3429,1201.78,3426.93,1197.09,3422.87,1195.77Z"/><path fill="#fff" d="M3547.66,1236.09l-82.24-26.57c-4.05-1.31-8.52,1.26-10,5.75l-12.77,39.53c-1.45,4.48.67,9.18,4.73,10.49l82.23,26.57c4.06,1.31,8.52-1.26,10-5.75l12.77-39.53C3553.83,1242.1,3551.72,1237.4,3547.66,1236.09Z"/><path fill="#fff" d="M3672.45,1276.41l-82.24-26.57c-4.05-1.31-8.52,1.26-10,5.74l-12.77,39.53c-1.45,4.49.67,9.18,4.72,10.5l82.24,26.56c4.06,1.32,8.52-1.26,10-5.74l12.77-39.53C3678.62,1282.41,3676.51,1277.72,3672.45,1276.41Z"/><path fill="#fee790" d="M3395.11,1281.71l-82.24-26.57c-4.06-1.31-8.52,1.27-10,5.75l-12.77,39.53c-1.45,4.49.67,9.18,4.72,10.49l82.24,26.57c4.06,1.31,8.52-1.26,10-5.74l12.77-39.53C3401.28,1287.72,3399.16,1283,3395.11,1281.71Z"/><path fill="#992e2e" d="M3519.9,1322l-82.24-26.57c-4.06-1.31-8.52,1.26-10,5.75l-12.77,39.53c-1.45,4.48.66,9.18,4.72,10.49l82.24,26.57c4.06,1.31,8.52-1.26,10-5.75l12.77-39.53C3526.07,1328,3524,1323.34,3519.9,1322Z"/><path fill="#74c2da" d="M3644.69,1362.35l-82.24-26.57c-4.06-1.31-8.52,1.26-10,5.74l-12.77,39.53c-1.45,4.49.66,9.18,4.72,10.5l82.24,26.56c4.06,1.32,8.52-1.26,10-5.74l12.77-39.53C3650.86,1368.35,3648.74,1363.66,3644.69,1362.35Z"/><circle cx="3660.73" cy="799.06" r="140.22" fill="#e6336b"/><polygon fill="#fff" points="3673.48 770.95 3676.89 788.03 3658.82 780.24 3673.48 770.95 3663.41 720.45 3620.55 701.97 3638.92 788.45 3654.54 779.07 3642.66 806.09 3638.92 788.45 3560.43 835.58 3603.86 854.31 3649.26 824.53 3646.12 807.58 3663.61 815.12 3649.26 824.53 3659.21 878.17 3703.02 897.07 3683.1 805.98 3667.65 815.26 3679.25 788.36 3683.1 805.98 3757.76 761.14 3716.83 743.49 3673.48 770.95"/><polygon fill="#fff" points="3654.54 779.07 3638.92 788.45 3642.66 806.09 3654.54 779.07"/><polygon fill="#fff" points="3676.89 788.03 3673.48 770.95 3658.82 780.24 3676.89 788.03"/><polygon fill="#fff" points="3667.65 815.26 3683.1 805.98 3679.25 788.36 3667.65 815.26"/><polygon fill="#fff" points="3646.12 807.58 3649.26 824.53 3663.61 815.12 3646.12 807.58"/><path fill="#4d7772" d="M1022.48,2718.9c-7-6.75-13.76-13.69-20.17-20.82-21.5-23.87-39.07-49.84-48.42-78.41-11-33.63-30.66-60.77-55.37-82.88q-4.17-3.73-8.54-7.28c-21.12-17.18-45.34-31.08-70.7-42.53-25.8-11.65-52.77-20.74-78.84-28.13-85.39-24.2-109.92-131.53-193.87-154-7.43-2-15.45-3-22.72-.51s-12.83,8.17-17.12,14.43c-15.35,22.29-15.65,52.66-5.43,77.72,15.31,37.55,39.64,62.91,68.66,82.43,34.38,23.13,60.77,23.24,97.82,33,41.4,10.91,81.69,40.39,110.77,71,32,33.6,55.16,74.86,88,107.64q3.91,3.9,8,7.6c20.89,19.18,44.44,34.55,69.67,47.24h107.59c-10-8.51-19.82-17.29-29.24-26.41Z"/><path fill="#498981" d="M968.15,2698.08a316.12,316.12,0,0,1-33.6-26.62c-21-19.24-39.29-42.14-57-64.28-10.36-13-20.89-26.19-32.1-38.81h0c-13.47-15.17-27.94-29.51-44.3-41.67-28.15-20.94-61.06-34.72-92.88-48.06s-64.76-27.15-92.47-48c-21.51-16.21-41.11-37.43-59.92-64.86a3.48,3.48,0,0,0-4.84-.9,3.44,3.44,0,0,0-.9,4.83c19.25,28.07,39.36,49.81,61.48,66.49,28.39,21.39,61.73,35.37,94,48.87,31.44,13.18,63.94,26.8,91.43,47.22,22.13,16.46,40.88,37.22,58.47,58.61,5.64,6.86,11.16,13.77,16.64,20.64,17.82,22.35,36.27,45.48,57.69,65.08a311.17,311.17,0,0,0,26.32,21.49c24.8,18.21,51.86,33.16,78.89,47.24h15.13c-5-2.59-10-5.18-15.07-7.82C1012.24,2725.52,989.43,2712.86,968.15,2698.08Z"/><path fill="#63a5a2" d="M1073.56,2725.25q-10.3-13.36-19.87-27.17c-1-1.38-1.92-2.77-2.85-4.15a531.45,531.45,0,0,1-45-79.34.09.09,0,0,1,0-.05c-16.51-36.37-28.15-74.64-33.14-114.81-6.22-50-1.8-100.78-7.37-150.84-8.14-73.13-37.54-141.84-75.12-204.48-19.38-32.3-43.35-75.9-76-103.44-19.18-16.14-41.34-26.77-67.35-26.36-30.94.49-57,27.61-63.79,57.79s2.14,61.95,16.43,89.38,33.75,51.81,50,78.13c43.08,69.76,50.9,144.72,65,223.28,1.37,7.66,3,15.61,4.92,23.79a528.83,528.83,0,0,0,26.21,81.38h0c3.14,7.56,6.48,15.08,10,22.5,20.46,42.82,47.58,82.25,81.19,107.21q5.82,4.32,11.89,8.05c20.7,12.66,40.86,25.85,61,39.19h79.91q-8.17-9.9-16-20.05A0,0,0,0,1,1073.56,2725.25Z"/><path fill="#498981" d="M1025.84,2158.26c-11.58-3.7-24.78-5.13-35.46.68-12.77,7-18.58,22.72-18.14,37.26s5.92,28.37,10.67,42.12a450.31,450.31,0,0,1,23.14,182.73c-3,37.42-10.75,74.46-11.59,112-.62,27.73,3.53,55,11.32,81.48a.09.09,0,0,0,0,.05c8.55,29,21.47,57,37.31,83.49a480.85,480.85,0,0,0,32.28,47.24h29.16c-4.78-14.61-8.79-28.61-12.3-39.44-.85-2.65-1.71-5.24-2.56-7.8-11.52-34.56-21.76-60.81-14-99.07,8.74-43.05,27.13-83.52,38.59-125.94a403.17,403.17,0,0,0,6.62-180.82C1110,2235.76,1080.62,2175.8,1025.84,2158.26Z"/><path fill="#498981" d="M1022.49,2718.91h0c-8.39-6.63-16.7-13.5-24.51-20.82-.23-.2-.46-.43-.69-.64-52-49.08-86.19-104.62-98.76-160.65l-.06-.28c-5.17-23.12-5.47-47.06-5.76-70.19-.26-20-.53-40.69-3.91-60.91-6.35-38.07-21.15-77.7-42.8-114.61-6.1-10.39-12.61-20.75-18.91-30.76-12.87-20.48-26.18-41.65-36.4-63.87-20.6-44.75-39.18-93.28-35.79-144.86a3.48,3.48,0,1,0-6.94-.46c-3.49,53.12,15.43,102.64,36.41,148.22,10.42,22.64,23.85,44,36.83,64.66,6.27,10,12.76,20.29,18.79,30.59,21.24,36.18,35.74,75,42,112.24,3.29,19.69,3.55,40.11,3.8,59.84.26,20.71.54,42,4.24,63.11.5,2.84,1,5.69,1.69,8.52,12.44,55.79,45.67,111,96.22,160,1.52,1.49,3.06,3,4.62,4.42,12.93,12.2,27.14,23.11,40.88,33.67.57.45,1.15.88,1.73,1.33,3.34,2.57,6.72,5.18,10.09,7.82h11.22c-6.25-5-12.59-9.89-18.81-14.66C1032.61,2726.8,1027.53,2722.9,1022.49,2718.91Z"/><path fill="#63a5a2" d="M1073.56,2725.25a252.48,252.48,0,0,1-13.52-27.17,220.42,220.42,0,0,1-15.22-53c-7.63-50.1,3.22-101.19,13.7-150.59,6.27-29.52,12.74-60,15.37-90.38,6.07-70.09-8.85-143.88-42-207.77a3.48,3.48,0,0,0-6.18,3.2c32.57,62.75,47.22,135.17,41.27,204-2.59,29.92-9,60.22-15.24,89.53-10.61,50-21.59,101.72-13.78,153.08a225.23,225.23,0,0,0,12.9,47.79c.54,1.38,1.09,2.77,1.66,4.15a265.91,265.91,0,0,0,25.36,47.24h8.42q-6.85-9.86-12.71-20.05A0,0,0,0,1,1073.56,2725.25Z"/></g></svg>